<?xml version="1.0" encoding="UTF-8"?>
<svg version="1.1" xmlns="http://www.w3.org/2000/svg" width="32" height="32">
<path d="M0 0 C10.56 0 21.12 0 32 0 C32 10.56 32 21.12 32 32 C21.44 32 10.88 32 0 32 C0 21.44 0 10.88 0 0 Z " fill="#0F0C02" transform="translate(0,0)"/>
<path d="M0 0 C4.29 0 8.58 0 13 0 C13.92538169 3.70152678 14.08174162 4.63458162 13 8 C11.125 7.6875 11.125 7.6875 9 7 C8.34 6.01 7.68 5.02 7 4 C8.65 4 10.3 4 12 4 C12 3.34 12 2.68 12 2 C10.02 2 8.04 2 6 2 C6 4.64 6 7.28 6 10 C5.34 9.67 4.68 9.34 4 9 C4 6.69 4 4.38 4 2 C2.68 1.67 1.36 1.34 0 1 C0 0.67 0 0.34 0 0 Z " fill="#D8AD37" transform="translate(5,12)"/>
<path d="M0 0 C0.66 0 1.32 0 2 0 C2.33 0.66 2.66 1.32 3 2 C4.97888961 2.72693904 6.97954558 3.39816251 9 4 C9 4.66 9 5.32 9 6 C8.01 6 7.02 6 6 6 C6 6.99 6 7.98 6 9 C0.25 7.375 0.25 7.375 -2 4 C-1.34 2.68 -0.68 1.36 0 0 Z " fill="#362304" transform="translate(18,16)"/>
<path d="M0 0 C0.66 0 1.32 0 2 0 C2.33 0.66 2.66 1.32 3 2 C3.928125 2.2165625 3.928125 2.2165625 4.875 2.4375 C7.36710392 3.09717457 8.3329446 4.08288629 10 6 C7.33333333 6 4.66666667 6 2 6 C1.34 4.02 0.68 2.04 0 0 Z " fill="#030200" transform="translate(18,12)"/>
<path d="M0 0 C0.66 0.66 1.32 1.32 2 2 C3.98356483 2.71408334 5.98315437 3.38617742 8 4 C8 4.33 8 4.66 8 5 C5.69 5 3.38 5 1 5 C0.67 3.35 0.34 1.7 0 0 Z " fill="#AB710F" transform="translate(19,16)"/>
<path d="M0 0 C-0.33 1.32 -0.66 2.64 -1 4 C-2.875 3.6875 -2.875 3.6875 -5 3 C-5.66 2.01 -6.32 1.02 -7 0 C-2.25 -1.125 -2.25 -1.125 0 0 Z " fill="#BB8313" transform="translate(19,16)"/>
</svg>
